<svg width="35" height="35" viewBox="0 0 35 35" fill="none" xmlns="http://www.w3.org/2000/svg">
<path d="M17.5007 24.7918C18.2742 24.7918 19.0161 24.4845 19.563 23.9376C20.11 23.3906 20.4173 22.6487 20.4173 21.8752C20.4173 21.1016 20.11 20.3598 19.563 19.8128C19.0161 19.2658 18.2742 18.9585 17.5007 18.9585C16.7271 18.9585 15.9852 19.2658 15.4383 19.8128C14.8913 20.3598 14.584 21.1016 14.584 21.8752C14.584 22.6487 14.8913 23.3906 15.4383 23.9376C15.9852 24.4845 16.7271 24.7918 17.5007 24.7918ZM26.2507 11.6668C27.0242 11.6668 27.7661 11.9741 28.313 12.5211C28.86 13.0681 29.1673 13.8099 29.1673 14.5835V29.1668C29.1673 29.9404 28.86 30.6822 28.313 31.2292C27.7661 31.7762 27.0242 32.0835 26.2507 32.0835H8.75065C7.9771 32.0835 7.23524 31.7762 6.68826 31.2292C6.14128 30.6822 5.83398 29.9404 5.83398 29.1668V14.5835C5.83398 13.8099 6.14128 13.0681 6.68826 12.5211C7.23524 11.9741 7.9771 11.6668 8.75065 11.6668H10.209V8.75016C10.209 6.81629 10.9772 4.96163 12.3447 3.59418C13.7121 2.22672 15.5668 1.4585 17.5007 1.4585C18.4582 1.4585 19.4064 1.6471 20.2911 2.01354C21.1757 2.37998 21.9795 2.91708 22.6566 3.59418C23.3337 4.27127 23.8708 5.0751 24.2373 5.95976C24.6037 6.84443 24.7923 7.79261 24.7923 8.75016V11.6668H26.2507ZM17.5007 4.37516C16.3403 4.37516 15.2275 4.8361 14.4071 5.65657C13.5866 6.47704 13.1257 7.58984 13.1257 8.75016V11.6668H21.8757V8.75016C21.8757 7.58984 21.4147 6.47704 20.5942 5.65657C19.7738 4.8361 18.661 4.37516 17.5007 4.37516Z" fill="currentColor"/>
</svg>
